<?xml version="1.0" encoding="utf-8" standalone="no"?>
<!DOCTYPE svg PUBLIC "-//W3C//DTD SVG 1.1//EN"
  "http://www.w3.org/Graphics/SVG/1.1/DTD/svg11.dtd">
<svg xmlns:xlink="http://www.w3.org/1999/xlink" width="707.904pt" height="360.055406pt" viewBox="0 0 707.904 360.055406" xmlns="http://www.w3.org/2000/svg" version="1.1">
 <metadata>
  <rdf:RDF xmlns:dc="http://purl.org/dc/elements/1.1/" xmlns:cc="http://creativecommons.org/ns#" xmlns:rdf="http://www.w3.org/1999/02/22-rdf-syntax-ns#">
   <cc:Work>
    <dc:type rdf:resource="http://purl.org/dc/dcmitype/StillImage"/>
    <dc:date>2026-04-24T12:33:14.092847</dc:date>
    <dc:format>image/svg+xml</dc:format>
    <dc:creator>
     <cc:Agent>
      <dc:title>Matplotlib v3.10.9, https://matplotlib.org/</dc:title>
     </cc:Agent>
    </dc:creator>
   </cc:Work>
  </rdf:RDF>
 </metadata>
 <defs>
  <style type="text/css">*{stroke-linejoin: round; stroke-linecap: butt}</style>
 </defs>
 <g id="figure_1">
  <g id="patch_1">
   <path d="M 0 360.055406 
L 707.904 360.055406 
L 707.904 0 
L 0 0 
z
" style="fill: #fafbfc"/>
  </g>
  <g id="axes_1">
   <g id="patch_2">
    <path d="M 111.36672 302.560238 
L 224.48448 302.560238 
Q 243.23328 302.560238 243.23328 293.246318 
L 243.23328 136.151534 
Q 243.23328 126.837614 224.48448 126.837614 
L 111.36672 126.837614 
Q 92.61792 126.837614 92.61792 136.151534 
L 92.61792 293.246318 
Q 92.61792 302.560238 111.36672 302.560238 
z
" clip-path="url(#pdad6ddce2f)" style="fill: #ffffff; stroke: #dde5f0; stroke-width: 1.2; stroke-linejoin: miter"/>
   </g>
   <g id="patch_3">
    <path d="M 259.48224 302.560238 
L 372.6 302.560238 
Q 391.3488 302.560238 391.3488 293.246318 
L 391.3488 136.151534 
Q 391.3488 126.837614 372.6 126.837614 
L 259.48224 126.837614 
Q 240.73344 126.837614 240.73344 136.151534 
L 240.73344 293.246318 
Q 240.73344 302.560238 259.48224 302.560238 
z
" clip-path="url(#pdad6ddce2f)" style="fill: #ffffff; stroke: #dde5f0; stroke-width: 1.2; stroke-linejoin: miter"/>
   </g>
   <g id="patch_4">
    <path d="M 407.59776 302.560238 
L 520.71552 302.560238 
Q 539.46432 302.560238 539.46432 293.246318 
L 539.46432 136.151534 
Q 539.46432 126.837614 520.71552 126.837614 
L 407.59776 126.837614 
Q 388.84896 126.837614 388.84896 136.151534 
L 388.84896 293.246318 
Q 388.84896 302.560238 407.59776 302.560238 
z
" clip-path="url(#pdad6ddce2f)" style="fill: #ffffff; stroke: #dde5f0; stroke-width: 1.2; stroke-linejoin: miter"/>
   </g>
   <g id="patch_5">
    <path d="M 555.71328 302.560238 
L 668.83104 302.560238 
Q 687.57984 302.560238 687.57984 293.246318 
L 687.57984 136.151534 
Q 687.57984 126.837614 668.83104 126.837614 
L 555.71328 126.837614 
Q 536.96448 126.837614 536.96448 136.151534 
L 536.96448 293.246318 
Q 536.96448 302.560238 555.71328 302.560238 
z
" clip-path="url(#pdad6ddce2f)" style="fill: #ffffff; stroke: #dde5f0; stroke-width: 1.2; stroke-linejoin: miter"/>
   </g>
   <g id="line2d_1">
    <path d="M 119.4912 244.193006 
L 216.36 244.193006 
" clip-path="url(#pdad6ddce2f)" style="fill: none; stroke: #1b9aaa; stroke-width: 3; stroke-linecap: square"/>
   </g>
   <g id="line2d_2">
    <path d="M 267.60672 244.193006 
L 364.47552 244.193006 
" clip-path="url(#pdad6ddce2f)" style="fill: none; stroke: #c4457a; stroke-width: 3; stroke-linecap: square"/>
   </g>
   <g id="line2d_3">
    <path d="M 415.72224 244.193006 
L 512.59104 244.193006 
" clip-path="url(#pdad6ddce2f)" style="fill: none; stroke: #d59a1a; stroke-width: 3; stroke-linecap: square"/>
   </g>
   <g id="line2d_4">
    <path d="M 563.83776 244.193006 
L 660.70656 244.193006 
" clip-path="url(#pdad6ddce2f)" style="fill: none; stroke: #2f9f68; stroke-width: 3; stroke-linecap: square"/>
   </g>
   <g id="text_1">
    <text style="font-weight: 700; font-size: 10px; font-family: 'Arial'; text-anchor: start; fill: #5f6b7a" x="119.4912" y="163.472366" transform="rotate(-0 119.4912 163.472366)">REVENUE</text>
   </g>
   <g id="text_2">
    <text style="font-weight: 700; font-size: 34px; font-family: 'Arial'; text-anchor: start; fill: #172033" x="119.4912" y="225.565166" transform="rotate(-0 119.4912 225.565166)">$428K</text>
   </g>
   <g id="text_3">
    <text style="font-size: 10px; font-family: 'Arial'; text-anchor: start; fill: #5f6b7a" x="119.4912" y="269.030126" transform="rotate(-0 119.4912 269.030126)">86% of $500K goal</text>
   </g>
   <g id="text_4">
    <text style="font-weight: 700; font-size: 10px; font-family: 'Arial'; text-anchor: start; fill: #5f6b7a" x="267.60672" y="163.472366" transform="rotate(-0 267.60672 163.472366)">SPEND</text>
   </g>
   <g id="text_5">
    <text style="font-weight: 700; font-size: 34px; font-family: 'Arial'; text-anchor: start; fill: #172033" x="267.60672" y="225.565166" transform="rotate(-0 267.60672 225.565166)">$92K</text>
   </g>
   <g id="text_6">
    <text style="font-size: 10px; font-family: 'Arial'; text-anchor: start; fill: #5f6b7a" x="267.60672" y="269.030126" transform="rotate(-0 267.60672 269.030126)">92% of budget</text>
   </g>
   <g id="text_7">
    <text style="font-weight: 700; font-size: 10px; font-family: 'Arial'; text-anchor: start; fill: #5f6b7a" x="415.72224" y="163.472366" transform="rotate(-0 415.72224 163.472366)">ROAS</text>
   </g>
   <g id="text_8">
    <text style="font-weight: 700; font-size: 34px; font-family: 'Arial'; text-anchor: start; fill: #172033" x="415.72224" y="225.565166" transform="rotate(-0 415.72224 225.565166)">4.7x</text>
   </g>
   <g id="text_9">
    <text style="font-size: 10px; font-family: 'Arial'; text-anchor: start; fill: #5f6b7a" x="415.72224" y="269.030126" transform="rotate(-0 415.72224 269.030126)">Target 5.0x</text>
   </g>
   <g id="text_10">
    <text style="font-weight: 700; font-size: 10px; font-family: 'Arial'; text-anchor: start; fill: #5f6b7a" x="563.83776" y="163.472366" transform="rotate(-0 563.83776 163.472366)">CAC</text>
   </g>
   <g id="text_11">
    <text style="font-weight: 700; font-size: 34px; font-family: 'Arial'; text-anchor: start; fill: #172033" x="563.83776" y="225.565166" transform="rotate(-0 563.83776 225.565166)">$41</text>
   </g>
   <g id="text_12">
    <text style="font-size: 10px; font-family: 'Arial'; text-anchor: start; fill: #5f6b7a" x="563.83776" y="269.030126" transform="rotate(-0 563.83776 269.030126)">$4 under target</text>
   </g>
  </g>
  <g id="text_13">
   <text style="font-weight: 700; font-size: 21px; font-family: 'Arial'; text-anchor: start; fill: #172033" x="7.2" y="22.231406" transform="rotate(-0 7.2 22.231406)">Executive Launch Scorecard</text>
  </g>
  <g id="text_14">
   <text style="font-size: 11px; font-family: 'Arial'; text-anchor: start; fill: #5f6b7a" x="7.2" y="44.407406" transform="rotate(-0 7.2 44.407406)">Spring Launch 2026 is close to revenue target while efficiency needs one more optimization pass.</text>
  </g>
 </g>
 <defs>
  <clipPath id="pdad6ddce2f">
   <rect x="75.744" y="42.391406" width="624.96" height="310.464"/>
  </clipPath>
 </defs>
</svg>
