<?xml version="1.0" encoding="utf-8" standalone="no"?>
<!DOCTYPE svg PUBLIC "-//W3C//DTD SVG 1.1//EN"
  "http://www.w3.org/Graphics/SVG/1.1/DTD/svg11.dtd">
<svg xmlns:xlink="http://www.w3.org/1999/xlink" width="427.58288pt" height="415.981185pt" viewBox="0 0 427.58288 415.981185" xmlns="http://www.w3.org/2000/svg" version="1.1">
 <metadata>
  <rdf:RDF xmlns:dc="http://purl.org/dc/elements/1.1/" xmlns:cc="http://creativecommons.org/ns#" xmlns:rdf="http://www.w3.org/1999/02/22-rdf-syntax-ns#">
   <cc:Work>
    <dc:type rdf:resource="http://purl.org/dc/dcmitype/StillImage"/>
    <dc:date>2026-04-24T12:33:14.974832</dc:date>
    <dc:format>image/svg+xml</dc:format>
    <dc:creator>
     <cc:Agent>
      <dc:title>Matplotlib v3.10.9, https://matplotlib.org/</dc:title>
     </cc:Agent>
    </dc:creator>
   </cc:Work>
  </rdf:RDF>
 </metadata>
 <defs>
  <style type="text/css">*{stroke-linejoin: round; stroke-linecap: butt}</style>
 </defs>
 <g id="figure_1">
  <g id="patch_1">
   <path d="M 0 415.981185 
L 427.58288 415.981185 
L 427.58288 0 
L 0 0 
z
" style="fill: #fafbfc"/>
  </g>
  <g id="axes_1">
   <g id="patch_2">
    <path d="M 362.016 221.711438 
C 362.016 198.414432 357.426998 175.343961 348.51162 153.820335 
C 339.596242 132.296709 326.52787 112.738508 310.0544 96.265038 
C 293.58093 79.791567 274.022729 66.723195 252.499102 57.807817 
C 230.975476 48.89244 207.905005 44.303438 184.608 44.303438 
C 161.310995 44.303438 138.240524 48.89244 116.716898 57.807817 
C 95.193271 66.723195 75.63507 79.791567 59.1616 96.265038 
C 42.68813 112.738508 29.619758 132.296709 20.70438 153.820335 
C 11.789002 175.343961 7.2 198.414432 7.2 221.711438 
C 7.2 245.008443 11.789002 268.078914 20.70438 289.60254 
C 29.619758 311.126166 42.68813 330.684367 59.1616 347.157837 
C 75.63507 363.631308 95.193271 376.69968 116.716898 385.615058 
C 138.240524 394.530435 161.310995 399.119438 184.608 399.119438 
C 207.905005 399.119438 230.975476 394.530435 252.499102 385.615058 
C 274.022729 376.69968 293.58093 363.631308 310.0544 347.157837 
C 326.52787 330.684367 339.596242 311.126166 348.51162 289.60254 
C 357.426998 268.078914 362.016 245.008443 362.016 221.711438 
M 184.608 221.711438 
C 184.608 221.711438 184.608 221.711438 184.608 221.711438 
C 184.608 221.711438 184.608 221.711438 184.608 221.711438 
C 184.608 221.711438 184.608 221.711438 184.608 221.711438 
C 184.608 221.711438 184.608 221.711438 184.608 221.711438 
C 184.608 221.711438 184.608 221.711438 184.608 221.711438 
C 184.608 221.711438 184.608 221.711438 184.608 221.711438 
C 184.608 221.711438 184.608 221.711438 184.608 221.711438 
C 184.608 221.711438 184.608 221.711438 184.608 221.711438 
C 184.608 221.711438 184.608 221.711438 184.608 221.711438 
C 184.608 221.711438 184.608 221.711438 184.608 221.711438 
C 184.608 221.711438 184.608 221.711438 184.608 221.711438 
C 184.608 221.711438 184.608 221.711438 184.608 221.711438 
C 184.608 221.711438 184.608 221.711438 184.608 221.711438 
C 184.608 221.711438 184.608 221.711438 184.608 221.711438 
C 184.608 221.711438 184.608 221.711438 184.608 221.711438 
C 184.608 221.711438 184.608 221.711438 184.608 221.711438 
z
" style="fill: #fafbfc"/>
   </g>
   <g id="patch_3">
    <path d="M 340.72704 221.711438 
L 224.079903 100.229413 
L 87.010261 150.802529 
L 66.916609 307.219238 
L 219.694136 329.69546 
z
" clip-path="url(#p653c1db22e)" style="fill: #1b9aaa; opacity: 0.18; stroke: #1b9aaa; stroke-linejoin: miter"/>
   </g>
   <g id="patch_4">
    <path d="M 308.7936 221.711438 
L 229.562111 83.356909 
L 98.492348 159.144754 
L 89.880783 290.534789 
L 225.176344 346.567963 
z
" clip-path="url(#p653c1db22e)" style="fill: #c4457a; opacity: 0.15; stroke: #c4457a; stroke-linejoin: miter"/>
   </g>
   <g id="matplotlib.axis_1">
    <g id="xtick_1">
     <g id="line2d_1">
      <path d="M 184.608 221.711438 
L 362.016 221.711438 
" clip-path="url(#p653c1db22e)" style="fill: none; stroke: #dde5f0; stroke-width: 0.8; stroke-linecap: square"/>
     </g>
     <g id="text_1">
      <text style="font-size: 11px; font-family: 'Arial'; text-anchor: middle; fill: #5f6b7a" x="376.016" y="224.555109" transform="rotate(-0 376.016 224.555109)">Reach</text>
     </g>
    </g>
    <g id="xtick_2">
     <g id="line2d_2">
      <path d="M 184.608 221.711438 
L 239.430087 52.986403 
" clip-path="url(#p653c1db22e)" style="fill: none; stroke: #dde5f0; stroke-width: 0.8; stroke-linecap: square"/>
     </g>
     <g id="text_2">
      <text style="font-size: 11px; font-family: 'Arial'; text-anchor: middle; fill: #5f6b7a" x="243.756325" y="42.515284" transform="rotate(-0 243.756325 42.515284)">CTR</text>
     </g>
    </g>
    <g id="xtick_3">
     <g id="line2d_3">
      <path d="M 184.608 221.711438 
L 41.081913 117.433631 
" clip-path="url(#p653c1db22e)" style="fill: none; stroke: #dde5f0; stroke-width: 0.8; stroke-linecap: square"/>
     </g>
     <g id="text_3">
      <text style="font-size: 11px; font-family: 'Arial'; text-anchor: middle; fill: #5f6b7a" x="29.755675" y="112.04831" transform="rotate(-0 29.755675 112.04831)">CVR</text>
     </g>
    </g>
    <g id="xtick_4">
     <g id="line2d_4">
      <path d="M 184.608 221.711438 
L 41.081913 325.989244 
" clip-path="url(#p653c1db22e)" style="fill: none; stroke: #dde5f0; stroke-width: 0.8; stroke-linecap: square"/>
     </g>
     <g id="text_4">
      <text style="font-size: 11px; font-family: 'Arial'; text-anchor: middle; fill: #5f6b7a" x="29.755675" y="337.061909" transform="rotate(-0 29.755675 337.061909)">ROAS</text>
     </g>
    </g>
    <g id="xtick_5">
     <g id="line2d_5">
      <path d="M 184.608 221.711438 
L 239.430087 390.436472 
" clip-path="url(#p653c1db22e)" style="fill: none; stroke: #dde5f0; stroke-width: 0.8; stroke-linecap: square"/>
     </g>
     <g id="text_5">
      <text style="font-size: 11px; font-family: 'Arial'; text-anchor: middle; fill: #5f6b7a" x="243.756325" y="406.594935" transform="rotate(-0 243.756325 406.594935)">Retention</text>
     </g>
    </g>
   </g>
   <g id="matplotlib.axis_2">
    <g id="ytick_1">
     <g id="line2d_6">
      <path d="M 228.96 221.711438 
C 228.96 215.887186 227.812749 210.119568 225.583905 204.738662 
C 223.355061 199.357755 220.087968 194.468205 215.9696 190.349838 
C 211.851232 186.23147 206.961682 182.964377 201.580776 180.735532 
C 196.199869 178.506688 190.432251 177.359438 184.608 177.359438 
C 178.783749 177.359438 173.016131 178.506688 167.635224 180.735532 
C 162.254318 182.964377 157.364768 186.23147 153.2464 190.349838 
C 149.128032 194.468205 145.860939 199.357755 143.632095 204.738662 
C 141.403251 210.119568 140.256 215.887186 140.256 221.711438 
C 140.256 227.535689 141.403251 233.303307 143.632095 238.684213 
C 145.860939 244.06512 149.128032 248.95467 153.2464 253.073037 
C 157.364768 257.191405 162.254318 260.458498 167.635224 262.687343 
C 173.016131 264.916187 178.783749 266.063438 184.608 266.063438 
C 190.432251 266.063438 196.199869 264.916187 201.580776 262.687343 
C 206.961682 260.458498 211.851232 257.191405 215.9696 253.073037 
C 220.087968 248.95467 223.355061 244.06512 225.583905 238.684213 
C 227.812749 233.303307 228.96 227.535689 228.96 221.711438 
" clip-path="url(#p653c1db22e)" style="fill: none; stroke: #dde5f0; stroke-width: 0.8; stroke-linecap: square"/>
     </g>
     <g id="text_6">
      <text style="font-size: 11px; font-family: 'Arial'; text-anchor: start; fill: #5f6b7a" x="225.583905" y="202.552412" transform="rotate(-0 225.583905 202.552412)">25</text>
     </g>
    </g>
    <g id="ytick_2">
     <g id="line2d_7">
      <path d="M 273.312 221.711438 
C 273.312 210.062935 271.017499 198.527699 266.55981 187.765886 
C 262.102121 177.004073 255.567935 167.224973 247.3312 158.988238 
C 239.094465 150.751502 229.315364 144.217316 218.553551 139.759627 
C 207.791738 135.301939 196.256503 133.007438 184.608 133.007438 
C 172.959497 133.007438 161.424262 135.301939 150.662449 139.759627 
C 139.900636 144.217316 130.121535 150.751502 121.8848 158.988238 
C 113.648065 167.224973 107.113879 177.004073 102.65619 187.765886 
C 98.198501 198.527699 95.904 210.062935 95.904 221.711438 
C 95.904 233.35994 98.198501 244.895176 102.65619 255.656989 
C 107.113879 266.418802 113.648065 276.197902 121.8848 284.434637 
C 130.121535 292.671373 139.900636 299.205559 150.662449 303.663248 
C 161.424262 308.120936 172.959497 310.415438 184.608 310.415438 
C 196.256503 310.415438 207.791738 308.120936 218.553551 303.663248 
C 229.315364 299.205559 239.094465 292.671373 247.3312 284.434637 
C 255.567935 276.197902 262.102121 266.418802 266.55981 255.656989 
C 271.017499 244.895176 273.312 233.35994 273.312 221.711438 
" clip-path="url(#p653c1db22e)" style="fill: none; stroke: #dde5f0; stroke-width: 0.8; stroke-linecap: square"/>
     </g>
     <g id="text_7">
      <text style="font-size: 11px; font-family: 'Arial'; text-anchor: start; fill: #5f6b7a" x="266.55981" y="185.579636" transform="rotate(-0 266.55981 185.579636)">50</text>
     </g>
    </g>
    <g id="ytick_3">
     <g id="line2d_8">
      <path d="M 317.664 221.711438 
C 317.664 204.238684 314.222248 186.93583 307.535715 170.793111 
C 300.849182 154.650391 291.047903 139.98174 278.6928 127.626638 
C 266.337697 115.271535 251.669046 105.470256 235.526327 98.783722 
C 219.383607 92.097189 202.080754 88.655438 184.608 88.655438 
C 167.135246 88.655438 149.832393 92.097189 133.689673 98.783722 
C 117.546954 105.470256 102.878303 115.271535 90.5232 127.626638 
C 78.168097 139.98174 68.366818 154.650391 61.680285 170.793111 
C 54.993752 186.93583 51.552 204.238684 51.552 221.711438 
C 51.552 239.184191 54.993752 256.487045 61.680285 272.629764 
C 68.366818 288.772484 78.168097 303.441135 90.5232 315.796237 
C 102.878303 328.15134 117.546954 337.952619 133.689673 344.639153 
C 149.832393 351.325686 167.135246 354.767438 184.608 354.767438 
C 202.080754 354.767438 219.383607 351.325686 235.526327 344.639153 
C 251.669046 337.952619 266.337697 328.15134 278.6928 315.796237 
C 291.047903 303.441135 300.849182 288.772484 307.535715 272.629764 
C 314.222248 256.487045 317.664 239.184191 317.664 221.711438 
" clip-path="url(#p653c1db22e)" style="fill: none; stroke: #dde5f0; stroke-width: 0.8; stroke-linecap: square"/>
     </g>
     <g id="text_8">
      <text style="font-size: 11px; font-family: 'Arial'; text-anchor: start; fill: #5f6b7a" x="307.535715" y="168.606861" transform="rotate(-0 307.535715 168.606861)">75</text>
     </g>
    </g>
    <g id="ytick_4">
     <g id="line2d_9">
      <path d="M 362.016 221.711438 
C 362.016 198.414432 357.426998 175.343961 348.51162 153.820335 
C 339.596242 132.296709 326.52787 112.738508 310.0544 96.265038 
C 293.58093 79.791567 274.022729 66.723195 252.499102 57.807817 
C 230.975476 48.89244 207.905005 44.303438 184.608 44.303438 
C 161.310995 44.303438 138.240524 48.89244 116.716898 57.807817 
C 95.193271 66.723195 75.63507 79.791567 59.1616 96.265038 
C 42.68813 112.738508 29.619758 132.296709 20.70438 153.820335 
C 11.789002 175.343961 7.2 198.414432 7.2 221.711438 
C 7.2 245.008443 11.789002 268.078914 20.70438 289.60254 
C 29.619758 311.126166 42.68813 330.684367 59.1616 347.157837 
C 75.63507 363.631308 95.193271 376.69968 116.716898 385.615058 
C 138.240524 394.530435 161.310995 399.119438 184.608 399.119438 
C 207.905005 399.119438 230.975476 394.530435 252.499102 385.615058 
C 274.022729 376.69968 293.58093 363.631308 310.0544 347.157837 
C 326.52787 330.684367 339.596242 311.126166 348.51162 289.60254 
C 357.426998 268.078914 362.016 245.008443 362.016 221.711438 
" clip-path="url(#p653c1db22e)" style="fill: none; stroke: #dde5f0; stroke-width: 0.8; stroke-linecap: square"/>
     </g>
     <g id="text_9">
      <text style="font-size: 11px; font-family: 'Arial'; text-anchor: start; fill: #5f6b7a" x="348.51162" y="151.634085" transform="rotate(-0 348.51162 151.634085)">100</text>
     </g>
    </g>
   </g>
   <g id="line2d_10">
    <path d="M 340.72704 221.711438 
L 224.079903 100.229413 
L 87.010261 150.802529 
L 66.916609 307.219238 
L 219.694136 329.69546 
L 340.72704 221.711438 
" clip-path="url(#p653c1db22e)" style="fill: none; stroke: #1b9aaa; stroke-width: 2.8; stroke-linecap: square"/>
   </g>
   <g id="line2d_11">
    <path d="M 308.7936 221.711438 
L 229.562111 83.356909 
L 98.492348 159.144754 
L 89.880783 290.534789 
L 225.176344 346.567963 
L 308.7936 221.711438 
" clip-path="url(#p653c1db22e)" style="fill: none; stroke: #c4457a; stroke-width: 2.8; stroke-linecap: square"/>
   </g>
   <g id="patch_5">
    <path d="M 362.016 221.711438 
C 362.016 198.414432 357.426998 175.343961 348.51162 153.820335 
C 339.596242 132.296709 326.52787 112.738508 310.0544 96.265038 
C 293.58093 79.791567 274.022729 66.723195 252.499102 57.807817 
C 230.975476 48.89244 207.905005 44.303438 184.608 44.303438 
C 161.310995 44.303438 138.240524 48.89244 116.716898 57.807817 
C 95.193271 66.723195 75.63507 79.791567 59.1616 96.265038 
C 42.68813 112.738508 29.619758 132.296709 20.70438 153.820335 
C 11.789002 175.343961 7.2 198.414432 7.2 221.711438 
C 7.2 245.008443 11.789002 268.078914 20.70438 289.60254 
C 29.619758 311.126166 42.68813 330.684367 59.1616 347.157837 
C 75.63507 363.631308 95.193271 376.69968 116.716898 385.615058 
C 138.240524 394.530435 161.310995 399.119438 184.608 399.119438 
C 207.905005 399.119438 230.975476 394.530435 252.499102 385.615058 
C 274.022729 376.69968 293.58093 363.631308 310.0544 347.157837 
C 326.52787 330.684367 339.596242 311.126166 348.51162 289.60254 
C 357.426998 268.078914 362.016 245.008443 362.016 221.711438 
" style="fill: none; stroke: #dde5f0; stroke-width: 0.8; stroke-linejoin: miter; stroke-linecap: square"/>
   </g>
   <g id="text_10">
    <text style="font-weight: 700; font-size: 18px; font-family: 'Arial'; text-anchor: start; fill: #172033" x="7.2" y="20.303438" transform="rotate(-0 7.2 20.303438)">Channel Strength Profile</text>
   </g>
   <g id="legend_1">
    <g id="line2d_12">
     <path d="M 325.26038 15.649111 
L 336.26038 15.649111 
L 347.26038 15.649111 
" style="fill: none; stroke: #1b9aaa; stroke-width: 2.8; stroke-linecap: square"/>
    </g>
    <g id="text_11">
     <text style="font-size: 11px; font-family: 'Arial'; text-anchor: start; fill: #172033" x="356.06038" y="19.499111" transform="rotate(-0 356.06038 19.499111)">Paid Search</text>
    </g>
    <g id="line2d_13">
     <path d="M 325.26038 31.208955 
L 336.26038 31.208955 
L 347.26038 31.208955 
" style="fill: none; stroke: #c4457a; stroke-width: 2.8; stroke-linecap: square"/>
    </g>
    <g id="text_12">
     <text style="font-size: 11px; font-family: 'Arial'; text-anchor: start; fill: #172033" x="356.06038" y="35.058955" transform="rotate(-0 356.06038 35.058955)">Paid Social</text>
    </g>
   </g>
  </g>
 </g>
 <defs>
  <clipPath id="p653c1db22e">
   <path d="M 362.016 221.711438 
C 362.016 198.414432 357.426998 175.343961 348.51162 153.820335 
C 339.596242 132.296709 326.52787 112.738508 310.0544 96.265038 
C 293.58093 79.791567 274.022729 66.723195 252.499102 57.807817 
C 230.975476 48.89244 207.905005 44.303438 184.608 44.303438 
C 161.310995 44.303438 138.240524 48.89244 116.716898 57.807817 
C 95.193271 66.723195 75.63507 79.791567 59.1616 96.265038 
C 42.68813 112.738508 29.619758 132.296709 20.70438 153.820335 
C 11.789002 175.343961 7.2 198.414432 7.2 221.711438 
C 7.2 245.008443 11.789002 268.078914 20.70438 289.60254 
C 29.619758 311.126166 42.68813 330.684367 59.1616 347.157837 
C 75.63507 363.631308 95.193271 376.69968 116.716898 385.615058 
C 138.240524 394.530435 161.310995 399.119438 184.608 399.119438 
C 207.905005 399.119438 230.975476 394.530435 252.499102 385.615058 
C 274.022729 376.69968 293.58093 363.631308 310.0544 347.157837 
C 326.52787 330.684367 339.596242 311.126166 348.51162 289.60254 
C 357.426998 268.078914 362.016 245.008443 362.016 221.711438 
M 184.608 221.711438 
C 184.608 221.711438 184.608 221.711438 184.608 221.711438 
C 184.608 221.711438 184.608 221.711438 184.608 221.711438 
C 184.608 221.711438 184.608 221.711438 184.608 221.711438 
C 184.608 221.711438 184.608 221.711438 184.608 221.711438 
C 184.608 221.711438 184.608 221.711438 184.608 221.711438 
C 184.608 221.711438 184.608 221.711438 184.608 221.711438 
C 184.608 221.711438 184.608 221.711438 184.608 221.711438 
C 184.608 221.711438 184.608 221.711438 184.608 221.711438 
C 184.608 221.711438 184.608 221.711438 184.608 221.711438 
C 184.608 221.711438 184.608 221.711438 184.608 221.711438 
C 184.608 221.711438 184.608 221.711438 184.608 221.711438 
C 184.608 221.711438 184.608 221.711438 184.608 221.711438 
C 184.608 221.711438 184.608 221.711438 184.608 221.711438 
C 184.608 221.711438 184.608 221.711438 184.608 221.711438 
C 184.608 221.711438 184.608 221.711438 184.608 221.711438 
C 184.608 221.711438 184.608 221.711438 184.608 221.711438 
z
"/>
  </clipPath>
 </defs>
</svg>
