<?xml version="1.0" encoding="utf-8" standalone="no"?>
<!DOCTYPE svg PUBLIC "-//W3C//DTD SVG 1.1//EN"
  "http://www.w3.org/Graphics/SVG/1.1/DTD/svg11.dtd">
<svg xmlns:xlink="http://www.w3.org/1999/xlink" width="707.904pt" height="359.583375pt" viewBox="0 0 707.904 359.583375" xmlns="http://www.w3.org/2000/svg" version="1.1">
 <metadata>
  <rdf:RDF xmlns:dc="http://purl.org/dc/elements/1.1/" xmlns:cc="http://creativecommons.org/ns#" xmlns:rdf="http://www.w3.org/1999/02/22-rdf-syntax-ns#">
   <cc:Work>
    <dc:type rdf:resource="http://purl.org/dc/dcmitype/StillImage"/>
    <dc:date>2026-04-24T12:33:15.287250</dc:date>
    <dc:format>image/svg+xml</dc:format>
    <dc:creator>
     <cc:Agent>
      <dc:title>Matplotlib v3.10.9, https://matplotlib.org/</dc:title>
     </cc:Agent>
    </dc:creator>
   </cc:Work>
  </rdf:RDF>
 </metadata>
 <defs>
  <style type="text/css">*{stroke-linejoin: round; stroke-linecap: butt}</style>
 </defs>
 <g id="figure_1">
  <g id="patch_1">
   <path d="M 0 359.583375 
L 707.904 359.583375 
L 707.904 0 
L 0 0 
z
" style="fill: #fafbfc"/>
  </g>
  <g id="axes_1">
   <g id="patch_2">
    <path d="M 188.2368 159.895695 
C 313.2288 159.895695 425.7216 135.058575 563.2128 135.058575 
" clip-path="url(#p2f685b8192)" style="fill: none; opacity: 0.45; stroke: #1b9aaa; stroke-width: 44; stroke-linejoin: miter; stroke-linecap: round"/>
   </g>
   <g id="patch_3">
    <path d="M 188.2368 203.360655 
C 313.2288 203.360655 425.7216 203.360655 563.2128 203.360655 
" clip-path="url(#p2f685b8192)" style="fill: none; opacity: 0.45; stroke: #c4457a; stroke-width: 32; stroke-linejoin: miter; stroke-linecap: round"/>
   </g>
   <g id="patch_4">
    <path d="M 188.2368 246.825615 
C 313.2288 246.825615 425.7216 268.558095 563.2128 268.558095 
" clip-path="url(#p2f685b8192)" style="fill: none; opacity: 0.45; stroke: #d59a1a; stroke-width: 22; stroke-linejoin: miter; stroke-linecap: round"/>
   </g>
   <g id="patch_5">
    <path d="M 129.49056 244.962831 
L 215.73504 244.962831 
Q 228.23424 244.962831 228.23424 238.753551 
L 228.23424 136.921359 
Q 228.23424 130.712079 215.73504 130.712079 
L 129.49056 130.712079 
Q 116.99136 130.712079 116.99136 136.921359 
L 116.99136 238.753551 
Q 116.99136 244.962831 129.49056 244.962831 
z
" clip-path="url(#p2f685b8192)" style="fill: #ffffff; stroke: #dde5f0; stroke-width: 1.2; stroke-linejoin: miter"/>
   </g>
   <g id="patch_6">
    <path d="M 554.46336 158.032911 
L 646.95744 158.032911 
Q 659.45664 158.032911 659.45664 151.823631 
L 659.45664 118.293519 
Q 659.45664 112.084239 646.95744 112.084239 
L 554.46336 112.084239 
Q 541.96416 112.084239 541.96416 118.293519 
L 541.96416 151.823631 
Q 541.96416 158.032911 554.46336 158.032911 
z
" clip-path="url(#p2f685b8192)" style="fill: #1b9aaa; stroke: #dde5f0; stroke-width: 1.2; stroke-linejoin: miter"/>
   </g>
   <g id="patch_7">
    <path d="M 554.46336 226.334991 
L 646.95744 226.334991 
Q 659.45664 226.334991 659.45664 220.125711 
L 659.45664 186.595599 
Q 659.45664 180.386319 646.95744 180.386319 
L 554.46336 180.386319 
Q 541.96416 180.386319 541.96416 186.595599 
L 541.96416 220.125711 
Q 541.96416 226.334991 554.46336 226.334991 
z
" clip-path="url(#p2f685b8192)" style="fill: #c4457a; stroke: #dde5f0; stroke-width: 1.2; stroke-linejoin: miter"/>
   </g>
   <g id="patch_8">
    <path d="M 554.46336 294.637071 
L 646.95744 294.637071 
Q 659.45664 294.637071 659.45664 288.427791 
L 659.45664 254.897679 
Q 659.45664 248.688399 646.95744 248.688399 
L 554.46336 248.688399 
Q 541.96416 248.688399 541.96416 254.897679 
L 541.96416 288.427791 
Q 541.96416 294.637071 554.46336 294.637071 
z
" clip-path="url(#p2f685b8192)" style="fill: #d59a1a; stroke: #dde5f0; stroke-width: 1.2; stroke-linejoin: miter"/>
   </g>
   <g id="text_1">
    <text style="font-weight: 700; font-size: 11px; font-family: 'Arial'; fill: #172033" transform="translate(155.807722 184.946346)">Spend</text>
    <text style="font-weight: 700; font-size: 11px; font-family: 'Arial'; fill: #172033" transform="translate(159.465222 196.565439)">$92K</text>
   </g>
   <g id="text_2">
    <text style="font-weight: 700; font-size: 11px; font-family: 'Arial'; fill: #ffffff" transform="translate(582.366181 132.100434)">Search</text>
    <text style="font-weight: 700; font-size: 11px; font-family: 'Arial'; fill: #ffffff" transform="translate(584.504306 143.719528)">$180K</text>
   </g>
   <g id="text_3">
    <text style="font-weight: 700; font-size: 11px; font-family: 'Arial'; fill: #ffffff" transform="translate(584.509462 200.402514)">Social</text>
    <text style="font-weight: 700; font-size: 11px; font-family: 'Arial'; fill: #ffffff" transform="translate(584.806806 212.021608)">$116K</text>
   </g>
   <g id="text_4">
    <text style="font-weight: 700; font-size: 11px; font-family: 'Arial'; fill: #ffffff" transform="translate(586.036572 268.704594)">Email</text>
    <text style="font-weight: 700; font-size: 11px; font-family: 'Arial'; fill: #ffffff" transform="translate(587.562822 280.323688)">$77K</text>
   </g>
  </g>
  <g id="text_5">
   <text style="font-weight: 700; font-size: 20px; font-family: 'Arial'; text-anchor: start; fill: #172033" x="7.2" y="21.759375" transform="rotate(-0 7.2 21.759375)">Spend to Revenue Flow</text>
  </g>
  <g id="text_6">
   <text style="font-size: 10px; font-family: 'Arial'; text-anchor: start; fill: #5f6b7a" x="7.2" y="43.935375" transform="rotate(-0 7.2 43.935375)">Sankey-style flow highlights where spend turns into the most attributed revenue.</text>
  </g>
 </g>
 <defs>
  <clipPath id="p2f685b8192">
   <rect x="75.744" y="41.919375" width="624.96" height="310.464"/>
  </clipPath>
 </defs>
</svg>
